
<svg xmlns="http://www.w3.org/2000/svg" xmlns:xlink="http://www.w3.org/1999/xlink" version="1.1"  width="1176" height="744">
<defs id="dmw_defs" >
<svg id="fk_sym" viewBox="0 0 48.665 48.665" style="enable-background:new 0 0 48.665 48.665;" >
<g>
<path d="M40.332,31.592c-2.377,0-4.515,1-6.033,2.598l-17.737-8.686c0.061-0.406,0.103-0.82,0.103-1.246    c0-0.414-0.04-0.818-0.098-1.215l17.711-8.589c1.519,1.609,3.666,2.619,6.054,2.619c4.603,0,8.333-3.731,8.333-8.333    c0-4.603-3.73-8.333-8.333-8.333s-8.333,3.73-8.333,8.333c0,0.414,0.04,0.817,0.098,1.215l-17.709,8.589    c-1.519-1.609-3.666-2.619-6.054-2.619C3.73,15.925,0,19.656,0,24.258c0,4.603,3.73,8.333,8.333,8.333    c2.377,0,4.515-1,6.033-2.596l17.736,8.685c-0.062,0.406-0.104,0.82-0.104,1.245c0,4.604,3.73,8.333,8.333,8.333    s8.333-3.729,8.333-8.333C48.665,35.322,44.935,31.592,40.332,31.592z" fill="#13bf3b"/>
</g>
</svg>
<svg id="pk_sym" viewBox="0 0 480.509 480.509" style="enable-background:new 0 0 480.509 480.509;" >
<g>
<path d="M418.119,331.046c4.094,4.374,7.766,8.186,10.996,11.416c3.237,3.238,6.714,6.376,10.427,9.422   c3.71,3.042,6.427,4.568,8.135,4.568c3.241,0,9.517-4.661,18.843-13.99c9.328-9.321,13.989-15.604,13.989-18.842   c0-1.523-2.714-5.421-8.138-11.704c-5.421-6.276-12.364-13.702-20.838-22.271c-8.473-8.565-16.703-16.744-24.694-24.55   c-8.001-7.81-15.8-15.373-23.417-22.703c-7.611-7.327-11.992-11.56-13.135-12.703c-1.902-1.902-4.093-2.853-6.563-2.853   c-3.237,0-9.521,4.661-18.843,13.988c-9.328,9.322-13.989,15.605-13.989,18.843c0,1.711,1.522,4.421,4.568,8.138   c3.046,3.71,6.188,7.187,9.421,10.424c3.23,3.23,7.047,6.899,11.42,10.992c4.377,4.093,6.848,6.423,7.423,6.995l-27.408,27.404   L254.954,222.268c24.94-33.498,37.408-68.236,37.408-104.211c0-31.024-9.761-56.293-29.263-75.801   c-19.512-19.511-44.778-29.265-75.805-29.265c-30.454,0-60.244,9.042-89.363,27.119c-29.121,18.083-52.727,41.686-70.808,70.808   C9.042,140.038,0,169.828,0,200.28c0,31.029,9.753,56.286,29.265,75.803c19.511,19.517,44.777,29.27,75.801,29.27   c35.976,0,70.71-12.467,104.212-37.407l191.574,191.579c5.332,5.328,11.796,7.994,19.417,7.994c7.991,0,15.704-3.72,23.12-11.14   c7.426-7.426,11.143-15.129,11.143-23.127c0-7.617-2.666-14.092-7.994-19.417l-62.811-62.811l27.405-27.404   C411.699,324.195,414.033,326.666,418.119,331.046z M221.556,161.458c-10.656,10.657-23.601,15.987-38.828,15.987   c-7.996,0-15.896-1.812-23.7-5.43c3.617,7.808,5.426,15.706,5.426,23.7c0,15.229-5.327,28.171-15.987,38.828   c-10.66,10.655-23.606,15.986-38.831,15.986c-15.227,0-28.168-5.325-38.828-15.986c-10.657-10.657-15.987-23.599-15.987-38.828   c0-15.227,5.327-28.171,15.987-38.828C81.464,146.23,94.409,140.9,109.636,140.9c7.992,0,15.893,1.809,23.695,5.424   c-3.616-7.804-5.424-15.706-5.424-23.699c0-15.227,5.327-28.171,15.987-38.828c10.66-10.657,23.604-15.987,38.831-15.987   c15.227,0,28.171,5.327,38.828,15.987c10.657,10.66,15.987,23.601,15.987,38.828C237.539,137.852,232.209,150.797,221.556,161.458z   " fill="#ff8345"/>
</g>
</svg>
<svg id="uk_sym" viewBox="0 0 490 490" style="enable-background:new 0 0 490 490;" >
<g>
	<polygon points="236.99,11.41 0,246.348 236.99,478.678 236.99,350.609 129.864,245 236.99,139.391  " fill="#0064fb"/>
<polygon points="253.01,478.59 490,243.651 253.01,11.322 253.01,139.391 360.136,245 253.01,350.609  " fill="#0064fb"/>
</g>
</svg>
<svg id="link_sym" viewBox="0 0 1000 900" style="enable-background:new 0 0 1000 900;" >
<g>
<path fill="black" d="M660.224 422.656c6.976 16.192-0.512 35.008-16.768 42.048-16.128 6.976-34.944-0.448-41.984-16.768-8.448-19.776-20.736-37.696-36.224-53.248-64.64-64.64-177.344-64.64-241.92 0l-145.216 145.28c-66.688 66.688-66.688 175.232 0 241.984 66.688 66.688 175.104 66.752 241.92 0l92.8-92.864c12.48-12.48 32.768-12.48 45.248 0s12.48 32.768 0 45.248l-92.8 92.864c-91.648 91.648-240.832 91.52-332.416 0-91.712-91.648-91.712-240.832 0-332.48l145.216-145.28c44.352-44.416 103.424-68.864 166.272-68.864s121.792 24.448 166.208 68.864c21.248 21.312 38.016 45.952 49.664 73.216zM891.136 401.344l-145.216 145.216c-88.768 88.832-243.712 88.832-332.416 0-21.312-21.312-38.080-45.952-49.728-73.216-7.040-16.256 0.448-35.072 16.704-42.048 16.064-6.784 35.008 0.512 41.984 16.768 8.512 19.776 20.8 37.696 36.288 53.248 64.64 64.64 177.344 64.64 241.92 0l145.216-145.216c66.688-66.688 66.688-175.232 0-241.984-66.752-66.624-175.168-66.688-241.92 0l-92.8 92.864c-12.48 12.48-32.768 12.48-45.248 0s-12.48-32.768 0-45.248l92.8-92.864c45.824-45.824 105.984-68.736 166.208-68.736s120.448 22.912 166.272 68.736c91.584 91.648 91.584 240.768-0.064 332.48z" />
</g>
</svg>
<clipPath clipPathUnits="userSpaceOnUse" id="clipPath2_0_">
<rect x="0" y="0" width="224" height="110" />
</clipPath>
<clipPath clipPathUnits="userSpaceOnUse" id="clipPath3_0_">
<rect x="0" y="0" width="292" height="461" />
</clipPath>
<clipPath clipPathUnits="userSpaceOnUse" id="clipPath1_0_">
<rect x="0" y="0" width="262" height="110" />
</clipPath>
<clipPath clipPathUnits="userSpaceOnUse" id="clipPath4_0_">
<rect x="0" y="0" width="236" height="110" />
</clipPath>
<clipPath clipPathUnits="userSpaceOnUse" id="clipPath6_0_">
<rect x="0" y="0" width="223" height="110" />
</clipPath>
<clipPath clipPathUnits="userSpaceOnUse" id="clipPath5_0_">
<rect x="0" y="0" width="170" height="110" />
</clipPath>
<clipPath clipPathUnits="userSpaceOnUse" id="clipPath7_0_">
<rect x="0" y="0" width="295" height="391" />
</clipPath>
</defs>
<g stroke-linecap="butt" >
<path stroke="rgb(0,0,0)" fill="none" stroke-opacity="1.0"  stroke-width="1" d="M813 634 L813 490" />
<polygon stroke="rgb(0,0,0)" stroke-dasharray="none" points="813 634 810 628 816 628" fill="rgb(0,0,0)" stroke-width="1" stroke-opacity="1.0"  />
<path stroke-dasharray="none" d="M819.0 490.0 L813.0 502.0 L807.0 490.0 M819.0 502.5999994277954 L807.0 502.5999994277954" fill="white" stroke-width="1" stroke-opacity="1.0" stroke="rgb(0,0,0)" />
</g>
<g stroke-linecap="butt" >
<path stroke="rgb(0,0,0)" fill="none" stroke-opacity="1.0"  stroke-width="1" d="M940 471 L867 471" />
<polygon stroke="rgb(0,0,0)" stroke-dasharray="none" points="940 471 934 474 934 468" fill="rgb(0,0,0)" stroke-width="1" stroke-opacity="1.0"  />
<path stroke-dasharray="none" d="M867.0 465.0 L879.0 471.0 L867.0 477.0 M879.5999994277954 465.0 L879.5999994277954 477.0" fill="white" stroke-width="1" stroke-opacity="1.0" stroke="rgb(0,0,0)" />
</g>
<g stroke-linecap="butt" >
<path stroke="rgb(0,0,0)" fill="none" stroke-opacity="1.0"  stroke-width="1" d="M491 309 L572 309" />
<polygon stroke="rgb(0,0,0)" stroke-dasharray="none" points="491 309 497 306 497 312" fill="rgb(0,0,0)" stroke-width="1" stroke-opacity="1.0"  />
<path stroke-dasharray="none" d="M572.0 315.0 L560.0 309.0 L572.0 303.0 M559.4000005722046 315.0 L559.4000005722046 303.0" fill="white" stroke-width="1" stroke-opacity="1.0" stroke="rgb(0,0,0)" />
</g>
<g stroke-linecap="butt" >
<path stroke="rgb(0,0,0)" fill="none" stroke-opacity="1.0"  stroke-width="1" d="M950 170 L867 170" />
<polygon stroke="rgb(0,0,0)" stroke-dasharray="none" points="950 170 944 173 944 167" fill="rgb(0,0,0)" stroke-width="1" stroke-opacity="1.0"  />
<path stroke-dasharray="none" d="M867.0 164.0 L879.0 170.0 L867.0 176.0 M879.5999994277954 164.0 L879.5999994277954 176.0" fill="white" stroke-width="1" stroke-opacity="1.0" stroke="rgb(0,0,0)" />
</g>
<g stroke-linecap="butt" >
<path stroke="rgb(0,0,0)" fill="none" stroke-opacity="1.0"  stroke-width="1" d="M648 620 L648 490" />
<polygon stroke="rgb(0,0,0)" stroke-dasharray="none" points="648 620 645 614 651 614" fill="rgb(0,0,0)" stroke-width="1" stroke-opacity="1.0"  />
<path stroke-dasharray="none" d="M654.0 490.0 L648.0 502.0 L642.0 490.0 M654.0 502.5999994277954 L642.0 502.5999994277954" fill="white" stroke-width="1" stroke-opacity="1.0" stroke="rgb(0,0,0)" />
</g>
<g stroke-linecap="butt" >
<path stroke="rgb(0,0,0)" fill="none" stroke-opacity="1.0"  stroke-width="1" d="M951 330 L867 330" />
<polygon stroke="rgb(0,0,0)" stroke-dasharray="none" points="951 330 945 333 945 327" fill="rgb(0,0,0)" stroke-width="1" stroke-opacity="1.0"  />
<path stroke-dasharray="none" d="M867.0 324.0 L879.0 330.0 L867.0 336.0 M879.5999994277954 324.0 L879.5999994277954 336.0" fill="white" stroke-width="1" stroke-opacity="1.0" stroke="rgb(0,0,0)" />
</g>
<g  fill="rgb(228,208,253)" stroke="rgb(0,0,255)" fill-opacity="1.0" stroke-opacity="1.0" clip-path="url(#clipPath1_0_)" transform="translate(432,620)" >
<rect x="0" y="0" width="261" height="109" />
<text id="584D3F59-52CF863828DE" x="98" y="14" fill="rgb(0,0,255)" font-weight="bold"  fill-opacity="1.0" font-size="10" stroke="none">
D_CHAT_GPT
</text>
<line x1="0" y1="18" x2="260" y2="18" fill="none" stroke="rgb(0,0,255)"/>
<text x="16" y="32" fill="rgb(255,0,0)" fill-opacity="1.0" font-size="10" stroke="none">
*
</text>
<text x="2" y="32" fill="rgb(0,0,255)" fill-opacity="1.0" font-size="10" stroke="none">
P
</text>
<text x="26" y="32" fill="rgb(0,0,0)" fill-opacity="1.0" font-size="10" stroke="none">
SK_GPT
</text>
<text x="182" y="32" fill="rgb(0,128,0)" fill-opacity="1.0" font-size="10" stroke="none">
INTEGER
</text>
<text x="16" y="46" fill="rgb(255,0,0)" fill-opacity="1.0" font-size="10" stroke="none">

</text>
<text x="26" y="46" fill="rgb(0,0,0)" fill-opacity="1.0" font-size="10" stroke="none">
ANALISE_SENTIMENTO
</text>
<text x="182" y="46" fill="rgb(0,128,0)" fill-opacity="1.0" font-size="10" stroke="none">
INTEGER
</text>
<text x="16" y="60" fill="rgb(255,0,0)" fill-opacity="1.0" font-size="10" stroke="none">

</text>
<text x="26" y="60" fill="rgb(0,0,0)" fill-opacity="1.0" font-size="10" stroke="none">
TEMA
</text>
<text x="182" y="60" fill="rgb(0,128,0)" fill-opacity="1.0" font-size="10" stroke="none">
VARCHAR2 (50)
</text>
<text x="16" y="74" fill="rgb(255,0,0)" fill-opacity="1.0" font-size="10" stroke="none">

</text>
<text x="26" y="74" fill="rgb(0,0,0)" fill-opacity="1.0" font-size="10" stroke="none">
SOLUCAO_RECOMENDADA
</text>
<text x="182" y="74" fill="rgb(0,128,0)" fill-opacity="1.0" font-size="10" stroke="none">
VARCHAR2 (255)
</text>
<line x1="0" y1="80" x2="260" y2="80" fill="none" stroke="rgb(0,0,255)"/>
<use xlink:href="#pk_sym" x="4" y="87" width="8" height="8" fill-opacity="1.0"/>
<text x="16" y="94" fill="rgb(0,0,0)" fill-opacity="1.0" font-size="10" stroke="none">
D_CHAT_GPT_PK (SK_GPT)
</text>
</g>
<g  fill="rgb(228,208,253)" stroke="rgb(0,0,255)" fill-opacity="1.0" stroke-opacity="1.0" clip-path="url(#clipPath2_0_)" transform="translate(950,100)" >
<rect x="0" y="0" width="223" height="109" />
<text id="2BEF113B-87A4FB7924E4" x="84" y="14" fill="rgb(0,0,255)" font-weight="bold"  fill-opacity="1.0" font-size="10" stroke="none">
D_CLIENTE
</text>
<line x1="0" y1="18" x2="222" y2="18" fill="none" stroke="rgb(0,0,255)"/>
<text x="16" y="32" fill="rgb(255,0,0)" fill-opacity="1.0" font-size="10" stroke="none">
*
</text>
<text x="2" y="32" fill="rgb(0,0,255)" fill-opacity="1.0" font-size="10" stroke="none">
P
</text>
<text x="26" y="32" fill="rgb(0,0,0)" fill-opacity="1.0" font-size="10" stroke="none">
SK_CLIENTE
</text>
<text x="127" y="32" fill="rgb(0,128,0)" fill-opacity="1.0" font-size="10" stroke="none">
INTEGER
</text>
<text x="16" y="46" fill="rgb(255,0,0)" fill-opacity="1.0" font-size="10" stroke="none">

</text>
<text x="26" y="46" fill="rgb(0,0,0)" fill-opacity="1.0" font-size="10" stroke="none">
NOME_CLIENTE
</text>
<text x="127" y="46" fill="rgb(0,128,0)" fill-opacity="1.0" font-size="10" stroke="none">
VARCHAR2 (50)
</text>
<text x="16" y="60" fill="rgb(255,0,0)" fill-opacity="1.0" font-size="10" stroke="none">

</text>
<text x="26" y="60" fill="rgb(0,0,0)" fill-opacity="1.0" font-size="10" stroke="none">
NOME_EMPRESA
</text>
<text x="127" y="60" fill="rgb(0,128,0)" fill-opacity="1.0" font-size="10" stroke="none">
VARCHAR2 (50)
</text>
<text x="16" y="74" fill="rgb(255,0,0)" fill-opacity="1.0" font-size="10" stroke="none">

</text>
<text x="26" y="74" fill="rgb(0,0,0)" fill-opacity="1.0" font-size="10" stroke="none">
SEGMENTO
</text>
<text x="127" y="74" fill="rgb(0,128,0)" fill-opacity="1.0" font-size="10" stroke="none">
VARCHAR2 (50)
</text>
<line x1="0" y1="80" x2="222" y2="80" fill="none" stroke="rgb(0,0,255)"/>
<use xlink:href="#pk_sym" x="4" y="87" width="8" height="8" fill-opacity="1.0"/>
<text x="16" y="94" fill="rgb(0,0,0)" fill-opacity="1.0" font-size="10" stroke="none">
D_CLIENTE_PK (SK_CLIENTE)
</text>
</g>
<g  fill="rgb(228,208,253)" stroke="rgb(0,0,255)" fill-opacity="1.0" stroke-opacity="1.0" clip-path="url(#clipPath3_0_)" transform="translate(199,89)" >
<rect x="0" y="0" width="291" height="460" />
<text id="327C8DE8-F93B8CDACC49" x="126" y="14" fill="rgb(0,0,255)" font-weight="bold"  fill-opacity="1.0" font-size="10" stroke="none">
D_DATA
</text>
<line x1="0" y1="18" x2="290" y2="18" fill="none" stroke="rgb(0,0,255)"/>
<text x="16" y="32" fill="rgb(255,0,0)" fill-opacity="1.0" font-size="10" stroke="none">
*
</text>
<text x="2" y="32" fill="rgb(0,0,255)" fill-opacity="1.0" font-size="10" stroke="none">
P
</text>
<text x="26" y="32" fill="rgb(0,0,0)" fill-opacity="1.0" font-size="10" stroke="none">
SK_DATA
</text>
<text x="182" y="32" fill="rgb(0,128,0)" fill-opacity="1.0" font-size="10" stroke="none">
NUMBER (8)
</text>
<text x="16" y="46" fill="rgb(255,0,0)" fill-opacity="1.0" font-size="10" stroke="none">

</text>
<text x="26" y="46" fill="rgb(0,0,0)" fill-opacity="1.0" font-size="10" stroke="none">
NR_ANO
</text>
<text x="182" y="46" fill="rgb(0,128,0)" fill-opacity="1.0" font-size="10" stroke="none">
NUMBER (4)
</text>
<text x="16" y="60" fill="rgb(255,0,0)" fill-opacity="1.0" font-size="10" stroke="none">

</text>
<text x="26" y="60" fill="rgb(0,0,0)" fill-opacity="1.0" font-size="10" stroke="none">
NR_SEMESTRE
</text>
<text x="182" y="60" fill="rgb(0,128,0)" fill-opacity="1.0" font-size="10" stroke="none">
NUMBER (1)
</text>
<text x="16" y="74" fill="rgb(255,0,0)" fill-opacity="1.0" font-size="10" stroke="none">

</text>
<text x="26" y="74" fill="rgb(0,0,0)" fill-opacity="1.0" font-size="10" stroke="none">
DS_SEMESTRE
</text>
<text x="182" y="74" fill="rgb(0,128,0)" fill-opacity="1.0" font-size="10" stroke="none">
VARCHAR2 (20)
</text>
<text x="16" y="88" fill="rgb(255,0,0)" fill-opacity="1.0" font-size="10" stroke="none">

</text>
<text x="26" y="88" fill="rgb(0,0,0)" fill-opacity="1.0" font-size="10" stroke="none">
DS_SEMESTRE_ANO
</text>
<text x="182" y="88" fill="rgb(0,128,0)" fill-opacity="1.0" font-size="10" stroke="none">
VARCHAR2 (20)
</text>
<text x="16" y="102" fill="rgb(255,0,0)" fill-opacity="1.0" font-size="10" stroke="none">

</text>
<text x="26" y="102" fill="rgb(0,0,0)" fill-opacity="1.0" font-size="10" stroke="none">
DS_SEMESTRE_ABV
</text>
<text x="182" y="102" fill="rgb(0,128,0)" fill-opacity="1.0" font-size="10" stroke="none">
VARCHAR2 (20)
</text>
<text x="16" y="116" fill="rgb(255,0,0)" fill-opacity="1.0" font-size="10" stroke="none">

</text>
<text x="26" y="116" fill="rgb(0,0,0)" fill-opacity="1.0" font-size="10" stroke="none">
DS_SEMESTRE_ANO_ABV
</text>
<text x="182" y="116" fill="rgb(0,128,0)" fill-opacity="1.0" font-size="10" stroke="none">
VARCHAR2 (20)
</text>
<text x="16" y="130" fill="rgb(255,0,0)" fill-opacity="1.0" font-size="10" stroke="none">

</text>
<text x="26" y="130" fill="rgb(0,0,0)" fill-opacity="1.0" font-size="10" stroke="none">
NR_TRIMESTRE
</text>
<text x="182" y="130" fill="rgb(0,128,0)" fill-opacity="1.0" font-size="10" stroke="none">
VARCHAR2 (20)
</text>
<text x="16" y="144" fill="rgb(255,0,0)" fill-opacity="1.0" font-size="10" stroke="none">

</text>
<text x="26" y="144" fill="rgb(0,0,0)" fill-opacity="1.0" font-size="10" stroke="none">
DS_TRIMESTRE_ABV
</text>
<text x="182" y="144" fill="rgb(0,128,0)" fill-opacity="1.0" font-size="10" stroke="none">
VARCHAR2 (20)
</text>
<text x="16" y="158" fill="rgb(255,0,0)" fill-opacity="1.0" font-size="10" stroke="none">

</text>
<text x="26" y="158" fill="rgb(0,0,0)" fill-opacity="1.0" font-size="10" stroke="none">
DS_TRIMESTRE_ANO_ABV
</text>
<text x="182" y="158" fill="rgb(0,128,0)" fill-opacity="1.0" font-size="10" stroke="none">
VARCHAR2 (20)
</text>
<text x="16" y="172" fill="rgb(255,0,0)" fill-opacity="1.0" font-size="10" stroke="none">

</text>
<text x="26" y="172" fill="rgb(0,0,0)" fill-opacity="1.0" font-size="10" stroke="none">
NR_MES
</text>
<text x="182" y="172" fill="rgb(0,128,0)" fill-opacity="1.0" font-size="10" stroke="none">
NUMBER (1)
</text>
<text x="16" y="186" fill="rgb(255,0,0)" fill-opacity="1.0" font-size="10" stroke="none">

</text>
<text x="26" y="186" fill="rgb(0,0,0)" fill-opacity="1.0" font-size="10" stroke="none">
DS_MES
</text>
<text x="182" y="186" fill="rgb(0,128,0)" fill-opacity="1.0" font-size="10" stroke="none">
VARCHAR2 (20)
</text>
<text x="16" y="200" fill="rgb(255,0,0)" fill-opacity="1.0" font-size="10" stroke="none">

</text>
<text x="26" y="200" fill="rgb(0,0,0)" fill-opacity="1.0" font-size="10" stroke="none">
DS_MES_ANO
</text>
<text x="182" y="200" fill="rgb(0,128,0)" fill-opacity="1.0" font-size="10" stroke="none">
VARCHAR2 (20)
</text>
<text x="16" y="214" fill="rgb(255,0,0)" fill-opacity="1.0" font-size="10" stroke="none">

</text>
<text x="26" y="214" fill="rgb(0,0,0)" fill-opacity="1.0" font-size="10" stroke="none">
DS_MES_ANO_ABV
</text>
<text x="182" y="214" fill="rgb(0,128,0)" fill-opacity="1.0" font-size="10" stroke="none">
VARCHAR2 (20)
</text>
<text x="16" y="228" fill="rgb(255,0,0)" fill-opacity="1.0" font-size="10" stroke="none">

</text>
<text x="26" y="228" fill="rgb(0,0,0)" fill-opacity="1.0" font-size="10" stroke="none">
DS_MES_ABV
</text>
<text x="182" y="228" fill="rgb(0,128,0)" fill-opacity="1.0" font-size="10" stroke="none">
VARCHAR2 (20)
</text>
<text x="16" y="242" fill="rgb(255,0,0)" fill-opacity="1.0" font-size="10" stroke="none">

</text>
<text x="26" y="242" fill="rgb(0,0,0)" fill-opacity="1.0" font-size="10" stroke="none">
NR_SEMANA
</text>
<text x="182" y="242" fill="rgb(0,128,0)" fill-opacity="1.0" font-size="10" stroke="none">
NUMBER (2)
</text>
<text x="16" y="256" fill="rgb(255,0,0)" fill-opacity="1.0" font-size="10" stroke="none">

</text>
<text x="26" y="256" fill="rgb(0,0,0)" fill-opacity="1.0" font-size="10" stroke="none">
DS_NR_SEMANA
</text>
<text x="182" y="256" fill="rgb(0,128,0)" fill-opacity="1.0" font-size="10" stroke="none">
VARCHAR2 (20)
</text>
<text x="16" y="270" fill="rgb(255,0,0)" fill-opacity="1.0" font-size="10" stroke="none">

</text>
<text x="26" y="270" fill="rgb(0,0,0)" fill-opacity="1.0" font-size="10" stroke="none">
DAT_REF
</text>
<text x="182" y="270" fill="rgb(0,128,0)" fill-opacity="1.0" font-size="10" stroke="none">
DATE
</text>
<text x="16" y="284" fill="rgb(255,0,0)" fill-opacity="1.0" font-size="10" stroke="none">

</text>
<text x="26" y="284" fill="rgb(0,0,0)" fill-opacity="1.0" font-size="10" stroke="none">
DS_DIA_SEMANA
</text>
<text x="182" y="284" fill="rgb(0,128,0)" fill-opacity="1.0" font-size="10" stroke="none">
VARCHAR2 (20)
</text>
<text x="16" y="298" fill="rgb(255,0,0)" fill-opacity="1.0" font-size="10" stroke="none">

</text>
<text x="26" y="298" fill="rgb(0,0,0)" fill-opacity="1.0" font-size="10" stroke="none">
DAT_EXTENSO
</text>
<text x="182" y="298" fill="rgb(0,128,0)" fill-opacity="1.0" font-size="10" stroke="none">
VARCHAR2 (40)
</text>
<text x="16" y="312" fill="rgb(255,0,0)" fill-opacity="1.0" font-size="10" stroke="none">

</text>
<text x="26" y="312" fill="rgb(0,0,0)" fill-opacity="1.0" font-size="10" stroke="none">
DS_DIA_SEMANA1
</text>
<text x="182" y="312" fill="rgb(0,128,0)" fill-opacity="1.0" font-size="10" stroke="none">
VARCHAR2 (20)
</text>
<text x="16" y="326" fill="rgb(255,0,0)" fill-opacity="1.0" font-size="10" stroke="none">

</text>
<text x="26" y="326" fill="rgb(0,0,0)" fill-opacity="1.0" font-size="10" stroke="none">
NR_DIA_MES
</text>
<text x="182" y="326" fill="rgb(0,128,0)" fill-opacity="1.0" font-size="10" stroke="none">
NUMBER (2)
</text>
<text x="16" y="340" fill="rgb(255,0,0)" fill-opacity="1.0" font-size="10" stroke="none">

</text>
<text x="26" y="340" fill="rgb(0,0,0)" fill-opacity="1.0" font-size="10" stroke="none">
NR_DIA_SEMANA
</text>
<text x="182" y="340" fill="rgb(0,128,0)" fill-opacity="1.0" font-size="10" stroke="none">
NUMBER (2)
</text>
<text x="16" y="354" fill="rgb(255,0,0)" fill-opacity="1.0" font-size="10" stroke="none">

</text>
<text x="26" y="354" fill="rgb(0,0,0)" fill-opacity="1.0" font-size="10" stroke="none">
FL_MES_REFERENCIA
</text>
<text x="182" y="354" fill="rgb(0,128,0)" fill-opacity="1.0" font-size="10" stroke="none">
NUMBER (4)
</text>
<text x="16" y="368" fill="rgb(255,0,0)" fill-opacity="1.0" font-size="10" stroke="none">

</text>
<text x="26" y="368" fill="rgb(0,0,0)" fill-opacity="1.0" font-size="10" stroke="none">
DS_YTD_ABV
</text>
<text x="182" y="368" fill="rgb(0,128,0)" fill-opacity="1.0" font-size="10" stroke="none">
VARCHAR2 (4)
</text>
<text x="16" y="382" fill="rgb(255,0,0)" fill-opacity="1.0" font-size="10" stroke="none">

</text>
<text x="26" y="382" fill="rgb(0,0,0)" fill-opacity="1.0" font-size="10" stroke="none">
DS_L12M_ABV
</text>
<text x="182" y="382" fill="rgb(0,128,0)" fill-opacity="1.0" font-size="10" stroke="none">
VARCHAR2 (4)
</text>
<text x="16" y="396" fill="rgb(255,0,0)" fill-opacity="1.0" font-size="10" stroke="none">

</text>
<text x="26" y="396" fill="rgb(0,0,0)" fill-opacity="1.0" font-size="10" stroke="none">
DS_YTD
</text>
<text x="182" y="396" fill="rgb(0,128,0)" fill-opacity="1.0" font-size="10" stroke="none">
VARCHAR2 (20)
</text>
<text x="16" y="410" fill="rgb(255,0,0)" fill-opacity="1.0" font-size="10" stroke="none">

</text>
<text x="26" y="410" fill="rgb(0,0,0)" fill-opacity="1.0" font-size="10" stroke="none">
DS_L12M
</text>
<text x="182" y="410" fill="rgb(0,128,0)" fill-opacity="1.0" font-size="10" stroke="none">
VARCHAR2 (20)
</text>
<line x1="0" y1="416" x2="290" y2="416" fill="none" stroke="rgb(0,0,255)"/>
<use xlink:href="#pk_sym" x="4" y="423" width="8" height="8" fill-opacity="1.0"/>
<text x="16" y="430" fill="rgb(0,0,0)" fill-opacity="1.0" font-size="10" stroke="none">
D_DATA_PK (SK_DATA)
</text>
</g>
<g  fill="rgb(228,208,253)" stroke="rgb(0,0,255)" fill-opacity="1.0" stroke-opacity="1.0" clip-path="url(#clipPath4_0_)" transform="translate(940,422)" >
<rect x="0" y="0" width="235" height="109" />
<text id="B11BF370-D0F1BCB286D3" x="101" y="14" fill="rgb(0,0,255)" font-weight="bold"  fill-opacity="1.0" font-size="10" stroke="none">
D_NPS
</text>
<line x1="0" y1="18" x2="234" y2="18" fill="none" stroke="rgb(0,0,255)"/>
<text x="16" y="32" fill="rgb(255,0,0)" fill-opacity="1.0" font-size="10" stroke="none">
*
</text>
<text x="2" y="32" fill="rgb(0,0,255)" fill-opacity="1.0" font-size="10" stroke="none">
P
</text>
<text x="26" y="32" fill="rgb(0,0,0)" fill-opacity="1.0" font-size="10" stroke="none">
PK_NPS
</text>
<text x="155" y="32" fill="rgb(0,128,0)" fill-opacity="1.0" font-size="10" stroke="none">
INTEGER
</text>
<text x="16" y="46" fill="rgb(255,0,0)" fill-opacity="1.0" font-size="10" stroke="none">

</text>
<text x="26" y="46" fill="rgb(0,0,0)" fill-opacity="1.0" font-size="10" stroke="none">
NOTA_NPS
</text>
<text x="155" y="46" fill="rgb(0,128,0)" fill-opacity="1.0" font-size="10" stroke="none">
INTEGER
</text>
<text x="16" y="60" fill="rgb(255,0,0)" fill-opacity="1.0" font-size="10" stroke="none">

</text>
<text x="26" y="60" fill="rgb(0,0,0)" fill-opacity="1.0" font-size="10" stroke="none">
CLASSIFICACAO_NPS
</text>
<text x="155" y="60" fill="rgb(0,128,0)" fill-opacity="1.0" font-size="10" stroke="none">
VARCHAR2 (10)
</text>
<line x1="0" y1="66" x2="234" y2="66" fill="none" stroke="rgb(0,0,255)"/>
<use xlink:href="#pk_sym" x="4" y="73" width="8" height="8" fill-opacity="1.0"/>
<text x="16" y="80" fill="rgb(0,0,0)" fill-opacity="1.0" font-size="10" stroke="none">
D_NPS_PK (PK_NPS)
</text>
</g>
<g  fill="rgb(228,208,253)" stroke="rgb(0,0,255)" fill-opacity="1.0" stroke-opacity="1.0" clip-path="url(#clipPath5_0_)" transform="translate(759,634)" >
<rect x="0" y="0" width="169" height="109" />
<text id="BB18B50E-12FC6372D277" x="61" y="14" fill="rgb(0,0,255)" font-weight="bold"  fill-opacity="1.0" font-size="10" stroke="none">
D_SETOR
</text>
<line x1="0" y1="18" x2="168" y2="18" fill="none" stroke="rgb(0,0,255)"/>
<text x="16" y="32" fill="rgb(255,0,0)" fill-opacity="1.0" font-size="10" stroke="none">
*
</text>
<text x="2" y="32" fill="rgb(0,0,255)" fill-opacity="1.0" font-size="10" stroke="none">
P
</text>
<text x="26" y="32" fill="rgb(0,0,0)" fill-opacity="1.0" font-size="10" stroke="none">
SK_SETOR
</text>
<text x="142" y="32" fill="rgb(0,128,0)" fill-opacity="1.0" font-size="10" stroke="none">
INTEGER
</text>
<text x="16" y="46" fill="rgb(255,0,0)" fill-opacity="1.0" font-size="10" stroke="none">

</text>
<text x="26" y="46" fill="rgb(0,0,0)" fill-opacity="1.0" font-size="10" stroke="none">
PRINCIPAL_SETOR
</text>
<text x="142" y="46" fill="rgb(0,128,0)" fill-opacity="1.0" font-size="10" stroke="none">
VARCHAR2 (50)
</text>
<text x="16" y="60" fill="rgb(255,0,0)" fill-opacity="1.0" font-size="10" stroke="none">

</text>
<text x="26" y="60" fill="rgb(0,0,0)" fill-opacity="1.0" font-size="10" stroke="none">
OUTROS_SETORES
</text>
<text x="142" y="60" fill="rgb(0,128,0)" fill-opacity="1.0" font-size="10" stroke="none">
VARCHAR2 (50)
</text>
<line x1="0" y1="66" x2="168" y2="66" fill="none" stroke="rgb(0,0,255)"/>
<use xlink:href="#pk_sym" x="4" y="73" width="8" height="8" fill-opacity="1.0"/>
<text x="16" y="80" fill="rgb(0,0,0)" fill-opacity="1.0" font-size="10" stroke="none">
D_SETOR_PK (SK_SETOR)
</text>
</g>
<g  fill="rgb(228,208,253)" stroke="rgb(0,0,255)" fill-opacity="1.0" stroke-opacity="1.0" clip-path="url(#clipPath6_0_)" transform="translate(951,260)" >
<rect x="0" y="0" width="222" height="109" />
<text id="B2D671CE-F6C571C46EBC" x="82" y="14" fill="rgb(0,0,255)" font-weight="bold"  fill-opacity="1.0" font-size="10" stroke="none">
D_SISTEMA
</text>
<line x1="0" y1="18" x2="221" y2="18" fill="none" stroke="rgb(0,0,255)"/>
<text x="16" y="32" fill="rgb(255,0,0)" fill-opacity="1.0" font-size="10" stroke="none">
*
</text>
<text x="2" y="32" fill="rgb(0,0,255)" fill-opacity="1.0" font-size="10" stroke="none">
P
</text>
<text x="26" y="32" fill="rgb(0,0,0)" fill-opacity="1.0" font-size="10" stroke="none">
SK_SISTEMA
</text>
<text x="130" y="32" fill="rgb(0,128,0)" fill-opacity="1.0" font-size="10" stroke="none">
INTEGER
</text>
<text x="16" y="46" fill="rgb(255,0,0)" fill-opacity="1.0" font-size="10" stroke="none">

</text>
<text x="26" y="46" fill="rgb(0,0,0)" fill-opacity="1.0" font-size="10" stroke="none">
NOME_SISTEMA
</text>
<text x="130" y="46" fill="rgb(0,128,0)" fill-opacity="1.0" font-size="10" stroke="none">
VARCHAR2 (50)
</text>
<text x="16" y="60" fill="rgb(255,0,0)" fill-opacity="1.0" font-size="10" stroke="none">

</text>
<text x="26" y="60" fill="rgb(0,0,0)" fill-opacity="1.0" font-size="10" stroke="none">
TIPO_SISTEMA
</text>
<text x="130" y="60" fill="rgb(0,128,0)" fill-opacity="1.0" font-size="10" stroke="none">
VARCHAR2 (50)
</text>
<line x1="0" y1="66" x2="221" y2="66" fill="none" stroke="rgb(0,0,255)"/>
<use xlink:href="#pk_sym" x="4" y="73" width="8" height="8" fill-opacity="1.0"/>
<text x="16" y="80" fill="rgb(0,0,0)" fill-opacity="1.0" font-size="10" stroke="none">
D_SISTEMA_PK (SK_SISTEMA)
</text>
</g>
<g  fill="rgb(255,226,198)" stroke="rgb(0,0,255)" fill-opacity="1.0" stroke-opacity="1.0" clip-path="url(#clipPath7_0_)" transform="translate(572,99)" >
<rect x="0" y="0" width="294" height="390" />
<text id="FF1A8520-7F88673CF760" x="101" y="14" fill="rgb(0,0,255)" font-weight="bold"  fill-opacity="1.0" font-size="10" stroke="none">
F_PESQUISA_NPS
</text>
<line x1="0" y1="18" x2="293" y2="18" fill="none" stroke="rgb(0,0,255)"/>
<text x="16" y="32" fill="rgb(255,0,0)" fill-opacity="1.0" font-size="10" stroke="none">
*
</text>
<text x="2" y="32" fill="rgb(0,0,255)" fill-opacity="1.0" font-size="10" stroke="none">
P
</text>
<text x="26" y="32" fill="rgb(0,0,0)" fill-opacity="1.0" font-size="10" stroke="none">
PK_PESQUISA
</text>
<text x="168" y="32" fill="rgb(0,128,0)" fill-opacity="1.0" font-size="10" stroke="none">
INTEGER
</text>
<text x="16" y="46" fill="rgb(255,0,0)" fill-opacity="1.0" font-size="10" stroke="none">
*
</text>
<text x="2" y="46" fill="rgb(0,0,0)" fill-opacity="1.0" font-size="10" stroke="none">
F
</text>
<text x="26" y="46" fill="rgb(0,0,0)" fill-opacity="1.0" font-size="10" stroke="none">
SK_CLIENTE
</text>
<text x="168" y="46" fill="rgb(0,128,0)" fill-opacity="1.0" font-size="10" stroke="none">
INTEGER
</text>
<text x="16" y="60" fill="rgb(255,0,0)" fill-opacity="1.0" font-size="10" stroke="none">
*
</text>
<text x="2" y="60" fill="rgb(0,0,0)" fill-opacity="1.0" font-size="10" stroke="none">
F
</text>
<text x="26" y="60" fill="rgb(0,0,0)" fill-opacity="1.0" font-size="10" stroke="none">
SK_SISTEMA
</text>
<text x="168" y="60" fill="rgb(0,128,0)" fill-opacity="1.0" font-size="10" stroke="none">
INTEGER
</text>
<text x="16" y="74" fill="rgb(255,0,0)" fill-opacity="1.0" font-size="10" stroke="none">
*
</text>
<text x="2" y="74" fill="rgb(0,0,0)" fill-opacity="1.0" font-size="10" stroke="none">
F
</text>
<text x="26" y="74" fill="rgb(0,0,0)" fill-opacity="1.0" font-size="10" stroke="none">
PK_NPS
</text>
<text x="168" y="74" fill="rgb(0,128,0)" fill-opacity="1.0" font-size="10" stroke="none">
INTEGER
</text>
<text x="16" y="88" fill="rgb(255,0,0)" fill-opacity="1.0" font-size="10" stroke="none">
*
</text>
<text x="2" y="88" fill="rgb(0,0,0)" fill-opacity="1.0" font-size="10" stroke="none">
F
</text>
<text x="26" y="88" fill="rgb(0,0,0)" fill-opacity="1.0" font-size="10" stroke="none">
SK_SETOR
</text>
<text x="168" y="88" fill="rgb(0,128,0)" fill-opacity="1.0" font-size="10" stroke="none">
INTEGER
</text>
<text x="16" y="102" fill="rgb(255,0,0)" fill-opacity="1.0" font-size="10" stroke="none">
*
</text>
<text x="2" y="102" fill="rgb(0,0,0)" fill-opacity="1.0" font-size="10" stroke="none">
F
</text>
<text x="26" y="102" fill="rgb(0,0,0)" fill-opacity="1.0" font-size="10" stroke="none">
SK_DATA
</text>
<text x="168" y="102" fill="rgb(0,128,0)" fill-opacity="1.0" font-size="10" stroke="none">
NUMBER (8)
</text>
<text x="16" y="116" fill="rgb(255,0,0)" fill-opacity="1.0" font-size="10" stroke="none">

</text>
<text x="26" y="116" fill="rgb(0,0,0)" fill-opacity="1.0" font-size="10" stroke="none">
DATA_PESQUISA
</text>
<text x="168" y="116" fill="rgb(0,128,0)" fill-opacity="1.0" font-size="10" stroke="none">
DATE
</text>
<text x="16" y="130" fill="rgb(255,0,0)" fill-opacity="1.0" font-size="10" stroke="none">

</text>
<text x="26" y="130" fill="rgb(0,0,0)" fill-opacity="1.0" font-size="10" stroke="none">
DURACAO_ESPERA
</text>
<text x="168" y="130" fill="rgb(0,128,0)" fill-opacity="1.0" font-size="10" stroke="none">
DATE
</text>
<text x="16" y="144" fill="rgb(255,0,0)" fill-opacity="1.0" font-size="10" stroke="none">

</text>
<text x="26" y="144" fill="rgb(0,0,0)" fill-opacity="1.0" font-size="10" stroke="none">
ABANDONADO
</text>
<text x="168" y="144" fill="rgb(0,128,0)" fill-opacity="1.0" font-size="10" stroke="none">
CHAR (1)
</text>
<text x="16" y="158" fill="rgb(255,0,0)" fill-opacity="1.0" font-size="10" stroke="none">

</text>
<text x="26" y="158" fill="rgb(0,0,0)" fill-opacity="1.0" font-size="10" stroke="none">
NOTA_AGILIDADE
</text>
<text x="168" y="158" fill="rgb(0,128,0)" fill-opacity="1.0" font-size="10" stroke="none">
INTEGER
</text>
<text x="16" y="172" fill="rgb(255,0,0)" fill-opacity="1.0" font-size="10" stroke="none">

</text>
<text x="26" y="172" fill="rgb(0,0,0)" fill-opacity="1.0" font-size="10" stroke="none">
NOTA_ATENDIMENTO
</text>
<text x="168" y="172" fill="rgb(0,128,0)" fill-opacity="1.0" font-size="10" stroke="none">
INTEGER
</text>
<text x="16" y="186" fill="rgb(255,0,0)" fill-opacity="1.0" font-size="10" stroke="none">

</text>
<text x="26" y="186" fill="rgb(0,0,0)" fill-opacity="1.0" font-size="10" stroke="none">
NOTA_CUSTOS
</text>
<text x="168" y="186" fill="rgb(0,128,0)" fill-opacity="1.0" font-size="10" stroke="none">
INTEGER
</text>
<text x="16" y="200" fill="rgb(255,0,0)" fill-opacity="1.0" font-size="10" stroke="none">

</text>
<text x="26" y="200" fill="rgb(0,0,0)" fill-opacity="1.0" font-size="10" stroke="none">
NOTA_ATUALIZACOES
</text>
<text x="168" y="200" fill="rgb(0,128,0)" fill-opacity="1.0" font-size="10" stroke="none">
INTEGER
</text>
<text x="16" y="214" fill="rgb(255,0,0)" fill-opacity="1.0" font-size="10" stroke="none">

</text>
<text x="26" y="214" fill="rgb(0,0,0)" fill-opacity="1.0" font-size="10" stroke="none">
NOTA_UNIDADE_TOTVS
</text>
<text x="168" y="214" fill="rgb(0,128,0)" fill-opacity="1.0" font-size="10" stroke="none">
INTEGER
</text>
<text x="16" y="228" fill="rgb(255,0,0)" fill-opacity="1.0" font-size="10" stroke="none">
*
</text>
<text x="2" y="228" fill="rgb(0,0,0)" fill-opacity="1.0" font-size="10" stroke="none">
F
</text>
<text x="26" y="228" fill="rgb(0,0,0)" fill-opacity="1.0" font-size="10" stroke="none">
SK_GPT
</text>
<text x="168" y="228" fill="rgb(0,128,0)" fill-opacity="1.0" font-size="10" stroke="none">
INTEGER
</text>
<line x1="0" y1="234" x2="293" y2="234" fill="none" stroke="rgb(0,0,255)"/>
<use xlink:href="#pk_sym" x="4" y="241" width="8" height="8" fill-opacity="1.0"/>
<text x="16" y="248" fill="rgb(0,0,0)" fill-opacity="1.0" font-size="10" stroke="none">
F_PESQUISA_NPS_PK (PK_PESQUISA)
</text>
<line x1="0" y1="254" x2="293" y2="254" fill="none" stroke="rgb(0,0,255)"/>
<use xlink:href="#fk_sym" x="4" y="261" width="8" height="8" fill-opacity="1.0"/><a xlink:href="#327C8DE8-F93B8CDACC49" >
<text x="16" y="268" fill="rgb(0,0,0)" fill-opacity="1.0" font-size="10" stroke="none">
F_PESQUISA_NPS_D_DATA_FK (SK_DATA)
</text></a>
<use xlink:href="#fk_sym" x="4" y="275" width="8" height="8" fill-opacity="1.0"/><a xlink:href="#584D3F59-52CF863828DE" >
<text x="16" y="282" fill="rgb(0,0,0)" fill-opacity="1.0" font-size="10" stroke="none">
F_PESQUISA_NPS_D_CHAT_GPT_FK (SK_GPT)
</text></a>
<use xlink:href="#fk_sym" x="4" y="289" width="8" height="8" fill-opacity="1.0"/><a xlink:href="#2BEF113B-87A4FB7924E4" >
<text x="16" y="296" fill="rgb(0,0,0)" fill-opacity="1.0" font-size="10" stroke="none">
F_PESQUISA_NPS_D_CLIENTE_FK (SK_CLIENTE)
</text></a>
<use xlink:href="#fk_sym" x="4" y="303" width="8" height="8" fill-opacity="1.0"/><a xlink:href="#B2D671CE-F6C571C46EBC" >
<text x="16" y="310" fill="rgb(0,0,0)" fill-opacity="1.0" font-size="10" stroke="none">
F_PESQUISA_NPS_D_SISTEMA_FK (SK_SISTEMA)
</text></a>
<use xlink:href="#fk_sym" x="4" y="317" width="8" height="8" fill-opacity="1.0"/><a xlink:href="#B11BF370-D0F1BCB286D3" >
<text x="16" y="324" fill="rgb(0,0,0)" fill-opacity="1.0" font-size="10" stroke="none">
F_PESQUISA_NPS_D_NPS_FK (PK_NPS)
</text></a>
<use xlink:href="#fk_sym" x="4" y="331" width="8" height="8" fill-opacity="1.0"/><a xlink:href="#BB18B50E-12FC6372D277" >
<text x="16" y="338" fill="rgb(0,0,0)" fill-opacity="1.0" font-size="10" stroke="none">
F_PESQUISA_NPS_D_SETOR_FK (SK_SETOR)
</text></a>
</g>

</svg>